<svg xmlns="http://www.w3.org/2000/svg" viewBox="-2 0 40 40" fill="currentColor">
  <path d="m14,15.6l0,-1.49a13.1,13.1 0 0 0 -1.66,-0.11c-6.8,0 -12.34,5.18 -12.34,11.55c0,3.9 2.09,7.36 5.27,9.45c-2.13,-2.13 -3.32,-4.94 -3.32,-7.86c0,-6.28 5.38,-11.4 12.05,-11.54" fill="#cbd5e1"/>
  <path d="m14.33,32c2.87,0 5.22,-2.27 5.33,-5.11l0.01,-25.29h4.65a8.72,8.72 0 0 1 -0.16,-1.6l-6.35,0l-0.01,25.29c-0.1,2.84 -2.45,5.11 -5.32,5.11a5.33,5.33 0 0 1 -2.48,-0.61a5.34,5.34 0 0 0 4.33,2.21m18.67,-21.81l0,-1.41a8.82,8.82 0 0 1 -4.81,-1.42a8.85,8.85 0 0 0 4.81,2.83" fill="#cbd5e1"/>
  <path d="m28,7.72a8.63,8.63 0 0 1 -2.17,-5.72l-1.69,0a8.73,8.73 0 0 0 3.86,5.72m-15.68,12.35c-2.94,0 -5.32,2.36 -5.32,5.27a5.27,5.27 0 0 0 2.85,4.66a5.2,5.2 0 0 1 -1,-3.07c0,-2.91 2.38,-5.27 5.32,-5.27c0.55,0 1.08,0.09 1.57,0.24l0,-6.4a11.72,11.72 0 0 0 -1.57,-0.11c-0.09,0 -0.18,0 -0.27,0l0,4.92a5.29,5.29 0 0 0 -1.58,-0.25" fill="#cbd5e1"/>
  <path d="m32.15,11l0,4.88a15.15,15.15 0 0 1 -8.81,-2.81l0,12.77c0,6.38 -5.23,11.57 -11.66,11.57c-2.48,0 -4.79,-0.78 -6.68,-2.1a11.67,11.67 0 0 0 8.53,3.69c6.43,0 11.66,-5.19 11.66,-11.56l0,-12.77a15.15,15.15 0 0 0 8.81,2.81l0,-6.28a8.87,8.87 0 0 1 -1.85,-0.2" fill="#cbd5e1"/>
  <path d="m23.98,25.42l0,-12.79a15.74,15.74 0 0 0 9.02,2.82l0,-4.89a9.08,9.08 0 0 1 -4.91,-2.82c-2.07,-1.31 -3.5,-3.38 -3.96,-5.74l-4.74,0l-0.01,25.21c-0.11,2.83 -2.51,5.09 -5.45,5.09c-1.75,0 -3.39,-0.82 -4.42,-2.2c-1.79,-0.91 -2.91,-2.72 -2.92,-4.68c0.01,-2.92 2.44,-5.29 5.45,-5.29c0.56,0 1.1,0.09 1.61,0.24l0,-4.93c-6.45,0.15 -11.65,5.28 -11.65,11.58c0,3.04 1.22,5.81 3.21,7.88a12.12,12.12 0 0 0 6.83,2.1c6.59,0 11.94,-5.2 11.94,-11.58" fill="#cbd5e1"/>
</svg>